<svg width="416" height="410" viewBox="0 0 416 410" fill="none" xmlns="http://www.w3.org/2000/svg">
<circle cx="210" cy="203" r="150" fill="#FFE293"/>
<path d="M208.198 3.74591C208.924 2.23539 211.076 2.2354 211.802 3.74592L230.271 42.1329C230.91 43.4607 229.942 45 228.469 45H191.531C190.058 45 189.09 43.4607 189.729 42.1329L208.198 3.74591Z" fill="#FFE293"/>
<path d="M109.963 31.6452C109.837 29.9737 111.7 28.8982 113.084 29.8429L148.272 53.8526C149.49 54.683 149.421 56.4999 148.145 57.2367L116.156 75.7056C114.88 76.4424 113.272 75.5931 113.162 74.1238L109.963 31.6452Z" fill="#FFE293"/>
<path d="M22.8429 105.084C21.8982 103.7 22.9737 101.837 24.6452 101.963L67.1237 105.162C68.5931 105.272 69.4424 106.88 68.7056 108.156L50.2367 140.145C49.4999 141.421 47.683 141.49 46.8526 140.272L22.8429 105.084Z" fill="#FFE293"/>
<path d="M3.74591 204.802C2.23539 204.076 2.23539 201.924 3.74591 201.198L42.1329 182.729C43.4607 182.09 45 183.058 45 184.531L45 221.469C45 222.942 43.4607 223.91 42.1329 223.271L3.74591 204.802Z" fill="#FFE293"/>
<path d="M34.6452 304.338C32.9737 304.464 31.8982 302.602 32.8429 301.217L56.8526 266.029C57.683 264.812 59.4999 264.88 60.2367 266.156L78.7056 298.145C79.4424 299.421 78.5931 301.029 77.1237 301.14L34.6452 304.338Z" fill="#FFE293"/>
<path d="M113.084 377.119C111.7 378.063 109.837 376.988 109.963 375.316L113.162 332.838C113.272 331.368 114.88 330.519 116.156 331.256L148.145 349.725C149.421 350.462 149.49 352.279 148.272 353.109L113.084 377.119Z" fill="#FFE293"/>
<path d="M211.802 406.254C211.076 407.765 208.924 407.765 208.198 406.254L189.729 367.867C189.09 366.539 190.058 365 191.531 365L228.469 365C229.942 365 230.91 366.539 230.271 367.867L211.802 406.254Z" fill="#FFE293"/>
<path d="M317.338 375.316C317.464 376.988 315.602 378.063 314.217 377.119L279.029 353.109C277.812 352.279 277.88 350.462 279.156 349.725L311.145 331.256C312.421 330.519 314.029 331.368 314.14 332.838L317.338 375.316Z" fill="#FFE293"/>
<path d="M388.119 301.217C389.063 302.602 387.988 304.464 386.316 304.338L343.838 301.14C342.368 301.029 341.519 299.421 342.256 298.145L360.725 266.156C361.462 264.88 363.278 264.812 364.109 266.029L388.119 301.217Z" fill="#FFE293"/>
<path d="M412.254 201.198C413.765 201.924 413.765 204.076 412.254 204.802L373.867 223.271C372.539 223.91 371 222.942 371 221.469L371 184.531C371 183.058 372.539 182.09 373.867 182.729L412.254 201.198Z" fill="#FFE293"/>
<path d="M386.316 101.963C387.988 101.837 389.063 103.7 388.119 105.084L364.109 140.272C363.278 141.49 361.462 141.421 360.725 140.145L342.256 108.156C341.519 106.88 342.368 105.272 343.838 105.162L386.316 101.963Z" fill="#FFE293"/>
<path d="M307.217 29.8429C308.602 28.8982 310.464 29.9737 310.338 31.6452L307.14 74.1237C307.029 75.5931 305.421 76.4424 304.145 75.7056L272.156 57.2367C270.88 56.4999 270.812 54.683 272.029 53.8526L307.217 29.8429Z" fill="#FFE293"/>
</svg>
